<svg xmlns="http://www.w3.org/2000/svg" version="1.1" xmlns:xlink="http://www.w3.org/1999/xlink" xmlns:svgjs="http://svgjs.dev/svgjs" width="2000" height="1500" viewBox="0 0 2000 1500"><rect width="2000" height="1500" fill="#ffffff"></rect><g transform="matrix(0.35285815102328866,0,0,0.35285815102328866,645.6894406889335,248.38709677419354)"><svg viewBox="0 0 175 248" data-background-color="#ffffff" preserveAspectRatio="xMidYMid meet" height="2834" width="2000" xmlns="http://www.w3.org/2000/svg" xmlns:xlink="http://www.w3.org/1999/xlink"><g id="tight-bounds" transform="matrix(1,0,0,1,0.3601609451617094,0.4000000000000057)"><svg viewBox="0 0 174.27967810967658 247.2" height="247.2" width="174.27967810967658"><g><svg viewBox="0 0 395.52 561.0094364442789" height="247.2" width="174.27967810967658"><g transform="matrix(1,0,0,1,0,274.7520226247611)"><svg viewBox="0 0 395.52 286.25741381951775" height="286.25741381951775" width="395.52"><g id="textblocktransform"><svg viewBox="0 0 395.52 286.25741381951775" height="286.25741381951775" width="395.52" id="textblock"><g><svg viewBox="0 0 395.52 154.39357060849596" height="154.39357060849596" width="395.52"><g transform="matrix(1,0,0,1,0,0)"><svg width="395.52" viewBox="0.63 -38.82 127.58000000000001 49.81" height="154.39357060849596" data-palette-color="#2563eb"><path d="M17.97-19.73L17.97-19.73 17.99-10.5Q17.99-6.08 15.77-3.03L15.77-3.03Q13.16 0.49 8.5 0.49L8.5 0.49Q4.83 0.49 2.64-1.95L2.64-1.95Q0.63-4.17 0.63-7.32L0.63-7.32Q1.73-9.86 2.98-11.21L2.98-11.21Q5.03-13.43 6.4-13.67L6.4-13.67Q6.01-11.45 6.01-9.59 6.01-7.74 6.16-6.46 6.32-5.18 6.69-4.17L6.69-4.17Q7.5-1.95 9.23-1.95L9.23-1.95Q10.74-1.95 11.52-3.91L11.52-3.91Q12.18-5.52 12.18-8.23L12.18-8.23 12.18-14.09Q12.18-24.68 12.04-31.93L12.04-31.93Q11.99-33.86 11.46-35.12 10.94-36.38 9.69-37.35L9.69-37.35 19.34-37.35Q18.6-36.04 18.44-34.52 18.29-33.01 18.16-31.2L18.16-31.2Q17.97-27.76 17.97-19.73ZM34.81-22.71Q32.61-22.71 31.65-20.51 30.69-18.31 30.69-13.11L30.69-13.11Q30.69-1.95 34.81-1.95L34.81-1.95Q37.01-1.95 37.97-4.93 38.94-7.91 38.94-13.11 38.94-18.31 37.97-20.51 37.01-22.71 34.81-22.71L34.81-22.71ZM24.53-14.04Q24.53-25.15 34.81-25.15 45.09-25.15 45.09-14.04L45.09-14.04Q45.09-7.3 42.26-3.37L42.26-3.37Q39.5 0.49 34.81 0.49 30.12 0.49 27.37-3.37L27.37-3.37Q24.53-7.3 24.53-14.04L24.53-14.04ZM57.66-23.9L57.66-23.9Q60.1-25.15 62.56-25.15 65.01-25.15 66.52-24.6 68.04-24.05 69.11-23L69.11-23Q71.36-20.78 71.36-16.65L71.36-16.65Q71.36-8.5 67.08-4L67.08-4Q63.25 0 57.51 0L57.51 0 50.87 0 51.34-1.12Q52.07-2.91 52.19-4.8 52.31-6.69 52.38-8.26 52.44-9.84 52.49-11.67L52.49-11.67Q52.61-14.97 52.61-18.14 52.61-21.31 52.58-22.95 52.56-24.58 52.53-26.12L52.53-26.12Q52.39-31.93 52.06-33.19 51.73-34.45 51.42-35.07 51.12-35.69 50.73-36.23L50.73-36.23 49.9-37.35 58.81-37.35Q57.91-34.13 57.66-23.9ZM57.69-17.48L57.69-17.48 57.61-8.5Q57.61-3.78 57.86-1.88L57.86-1.88Q61.2-2.61 63.23-6.35L63.23-6.35Q65.25-10.03 65.25-15.43L65.25-15.43Q65.25-18.77 64.75-20.13 64.25-21.48 63.56-22.09 62.86-22.71 61.9-22.71 60.93-22.71 60.2-22.36 59.47-22.02 58.91-21.36L58.91-21.36Q57.69-19.92 57.69-17.48ZM84.23-31.23Q83.73-30.42 83.02-29.87 82.32-29.32 81.41-29.32 80.51-29.32 79.8-29.87 79.09-30.42 78.61-31.23L78.61-31.23Q77.6-32.89 77.6-34.74L77.6-34.74Q77.6-36.99 79.66-37.74L79.66-37.74Q80.39-38.01 81.44-38.01L81.44-38.01Q84.34-38.01 85.05-35.96L85.05-35.96Q85.27-35.38 85.27-34.66 85.27-33.94 85-32.98 84.73-32.03 84.23-31.23ZM84.81 0L77.6 0Q78.73-3.86 78.73-13.26L78.73-13.26Q78.73-19.87 77.56-22.36L77.56-22.36Q77.26-23 76.9-23.54L76.9-23.54 76.09-24.66 84.76-24.66Q83.68-20.63 83.68-12.24 83.68-3.86 84.81 0L84.81 0ZM100.58 0L91.66 0Q92.81-3.93 92.81-15.87L92.81-15.87Q92.81-17.97 92.76-18.59 92.71-19.21 92.32-19.29L92.32-19.29Q90.71-19.65 90.4-21.14L90.4-21.14Q90.32-21.53 90.2-21.97L90.2-21.97 91.76-21.97Q92.45-21.97 92.6-22.28 92.76-22.58 92.76-24L92.76-24Q92.76-26.76 92.56-29.42 92.35-32.08 92.76-33.45 93.18-34.81 94.06-35.79L94.06-35.79Q95.91-37.84 99.31-37.84L99.31-37.84Q100.58-37.84 101.63-37.6 102.68-37.35 103.65-37.35 104.63-37.35 105.36-37.62 106.09-37.89 106.66-38.82L106.66-38.82Q106.97-38.45 107.24-37.51 107.51-36.57 107.51-35.46 107.51-34.35 107.35-33.12 107.19-31.88 106.9-30.71L106.9-30.71Q106.29-28.27 105.19-26.83L105.19-26.83Q104.6-31.81 104.1-33.03 103.6-34.25 103.01-34.7 102.41-35.16 101.24-35.16 100.06-35.16 99.15-33.92 98.23-32.69 98.23-30.54L98.23-30.54 98.23-29.76Q98.23-24.88 98.5-23.86 98.77-22.85 99.23-22.53 99.7-22.22 100.55-22.22L100.55-22.22 105.04-22.22Q104.43-20.02 103.53-19.38L103.53-19.38Q103.09-19.04 102.54-19.04 101.99-19.04 101.67-19.12 101.36-19.19 101.06-19.29L101.06-19.29Q100.33-19.53 99.73-19.53 99.14-19.53 98.82-19.37 98.5-19.21 98.31-18.92L98.31-18.92Q98.01-18.43 98.01-17.36L98.01-17.36 98.01-13.18Q98.01-5.59 98.55-3.69L98.55-3.69Q98.94-2.27 99.55-1.44L99.55-1.44 100.58 0ZM122.52-7.35L122.52-8.08 122.55-13.5Q122.55-18.6 122.28-20.17 122.01-21.73 121.85-22.35 121.69-22.97 121.47-23.51L121.47-23.51 121.01-24.66 128.21-24.66 128.09-23.54Q127.94-22.36 127.89-20.12L127.89-20.12 127.8-16.41Q127.67-12.13 127.67-8.42 127.67-4.71 127.22-2.08 126.77 0.56 126.01 2.56 125.26 4.57 124.28 6.02 123.3 7.47 122.23 8.45L122.23 8.45Q120.37 10.21 118.08 10.99L118.08 10.99Q117.59 10.79 117.14 10.27 116.69 9.74 116.59 9.28L116.59 9.28Q118.74 8.18 120.03 5.91L120.03 5.91Q121.86 2.69 122.35-3.39L122.35-3.39Q119.52 0.49 115.39 0.49L115.39 0.49Q112.46 0.49 110.85-1.81L110.85-1.81Q109.31-4.03 109.31-7.91L109.31-7.91 109.31-11.21Q109.31-12.3 109.29-13.45L109.29-13.45 109.29-15.67Q109.24-17.8 109.13-18.98 109.02-20.17 108.89-20.96 108.75-21.75 108.56-22.38 108.36-23 108.12-23.54L108.12-23.54 107.58-24.66 115.03-24.66Q114.39-21.17 114.39-11.45L114.39-11.45Q114.39-7.5 114.81-6.18 115.22-4.86 115.84-4.26 116.47-3.66 117.44-3.66 118.42-3.66 119.16-3.97 119.91-4.27 120.52-4.79L120.52-4.79Q121.72-5.71 122.52-7.35L122.52-7.35ZM123.3-9.42L123.45-10.01 123.3-9.42Z" opacity="1" transform="matrix(1,0,0,1,0,0)" fill="#2563eb" class="wordmark-text-0" data-fill-palette-color="primary" id="text-0"></path></svg></g></svg></g><g transform="matrix(1,0,0,1,0,190.84218718346727)"><svg viewBox="0 0 395.52 95.4152266360505" height="95.4152266360505" width="395.52"><g transform="matrix(1,0,0,1,0,0)"><svg width="395.52" viewBox="0.1 -33.65 161.46 38.949999999999996" height="95.4152266360505" data-palette-color="#93c5fd"><path d="M3.45 0.05L3.45 0.05Q3.1 0.05 2.2 0.03 1.3 0 0.1-0.15L0.1-0.15 0.1-7.65 2.45-7.65Q2.85-7.65 2.98-7.78 3.1-7.9 3.1-8.45L3.1-8.45 3.1-29.55 11.8-29.55 11.8-8.6Q11.8-5.35 10.98-3.45 10.15-1.55 8.33-0.75 6.5 0.05 3.45 0.05ZM2.3-0.85L2.3-0.85 3.45-0.85Q6.2-0.85 7.85-1.55 9.5-2.25 10.25-3.95 11-5.65 11-8.6L11-8.6 11-28.65 3.9-28.65 3.9-8.45Q3.9-7.4 3.63-7.05 3.35-6.7 2.45-6.7L2.45-6.7 0.9-6.7 0.9-0.95Q1.2-0.9 1.55-0.88 1.9-0.85 2.3-0.85ZM3.45-1.3L2.35-1.3Q2-1.3 1.73-1.3 1.45-1.3 1.3-1.35L1.3-1.35 1.3-6.25 2.45-6.25Q3.6-6.25 3.95-6.68 4.3-7.1 4.3-8.45L4.3-8.45 4.3-28.2 10.6-28.2 10.6-8.6Q10.6-4.4 9-2.85 7.4-1.3 3.45-1.3L3.45-1.3ZM35.61 0.55L35.61 0.55Q32.61 0.55 30.71-0.18 28.81-0.9 27.89-2.9 26.96-4.9 26.96-8.8L26.96-8.8 26.96-18.05Q26.96-22.1 29.21-23.65 31.46-25.2 35.61-25.2L35.61-25.2Q39.76-25.2 42.01-23.65 44.26-22.1 44.26-18.05L44.26-18.05 44.26-8.8Q44.26-4.9 43.31-2.9 42.36-0.9 40.46-0.18 38.56 0.55 35.61 0.55ZM35.61-0.35L35.61-0.35Q38.31-0.35 40.04-1 41.76-1.65 42.59-3.48 43.41-5.3 43.41-8.8L43.41-8.8 43.41-18.05Q43.41-21.65 41.39-22.98 39.36-24.3 35.61-24.3L35.61-24.3Q31.86-24.3 29.84-22.98 27.81-21.65 27.81-18.05L27.81-18.05 27.81-8.8Q27.81-5.3 28.64-3.48 29.46-1.65 31.21-1 32.96-0.35 35.61-0.35ZM35.61-0.8L35.61-0.8Q33.06-0.8 31.41-1.43 29.76-2.05 28.99-3.78 28.21-5.5 28.21-8.8L28.21-8.8 28.21-18.05Q28.21-21.4 30.11-22.63 32.01-23.85 35.61-23.85L35.61-23.85Q39.16-23.85 41.06-22.63 42.96-21.4 42.96-18.05L42.96-18.05 42.96-8.8Q42.96-5.5 42.19-3.78 41.41-2.05 39.79-1.43 38.16-0.8 35.61-0.8ZM35.61-4.4L35.61-4.4Q36.16-4.4 36.26-4.83 36.36-5.25 36.36-5.6L36.36-5.6 36.36-19.1Q36.36-19.8 36.19-20.05 36.01-20.3 35.61-20.3L35.61-20.3Q35.26-20.3 35.06-20.08 34.86-19.85 34.86-19.1L34.86-19.1 34.86-5.6Q34.86-5.1 34.99-4.75 35.11-4.4 35.61-4.4ZM35.61-4.85L35.61-4.85Q35.31-4.85 35.31-5.6L35.31-5.6 35.31-19.1Q35.31-19.85 35.61-19.85L35.61-19.85Q35.91-19.85 35.91-19.1L35.91-19.1 35.91-5.6Q35.91-4.85 35.61-4.85ZM69.47 0.3L69.47 0.3Q68.22 0.3 67.42 0.05 66.62-0.2 65.97-0.6L65.97-0.6 65.67 0 59.27 0 59.27-31.55 68.47-31.55 68.47-24.85Q69.42-25.25 70.57-25.25L70.57-25.25Q72.22-25.25 73.6-24.68 74.97-24.1 75.77-22.7 76.57-21.3 76.57-18.8L76.57-18.8 76.57-8.4Q76.57-4.8 75.8-2.93 75.02-1.05 73.47-0.38 71.92 0.3 69.47 0.3ZM69.47-0.6L69.47-0.6Q71.57-0.6 72.97-1.2 74.37-1.8 75.05-3.48 75.72-5.15 75.72-8.4L75.72-8.4 75.72-18.8Q75.72-21 75.02-22.2 74.32-23.4 73.15-23.88 71.97-24.35 70.57-24.35L70.57-24.35Q69.47-24.35 68.77-24.03 68.07-23.7 67.62-23.25L67.62-23.25 67.62-30.6 60.12-30.6 60.12-0.9 65.12-0.9Q65.22-1.1 65.35-1.38 65.47-1.65 65.57-1.9L65.57-1.9Q66.12-1.5 67.07-1.05 68.02-0.6 69.47-0.6ZM69.47-1.05L69.47-1.05Q67.67-1.05 66.67-1.75L66.67-1.75Q66.17-2.1 65.85-2.33 65.52-2.55 65.42-2.75L65.42-2.75Q65.42-2.7 65.22-2.18 65.02-1.65 64.87-1.35L64.87-1.35 60.52-1.35 60.52-30.15 67.17-30.15 67.17-21.95Q67.57-22.6 68.27-23.25 68.97-23.9 70.57-23.9L70.57-23.9Q72.52-23.9 73.9-22.83 75.27-21.75 75.27-18.8L75.27-18.8 75.27-8.4Q75.27-5.35 74.65-3.75 74.02-2.15 72.75-1.6 71.47-1.05 69.47-1.05ZM67.92-5.05L67.92-5.05Q68.22-5.05 68.42-5.35L68.42-5.35Q68.62-5.55 68.62-6.4L68.62-6.4 68.62-18.2Q68.62-19.05 68.42-19.3L68.42-19.3Q68.17-19.55 67.92-19.55L67.92-19.55Q67.62-19.55 67.37-19.3L67.37-19.3Q67.17-19.05 67.17-18.2L67.17-18.2 67.17-6.4Q67.17-5.55 67.37-5.35L67.37-5.35Q67.62-5.05 67.92-5.05ZM67.92-5.5L67.92-5.5Q67.77-5.5 67.72-5.7L67.72-5.7Q67.62-5.9 67.62-6.4L67.62-6.4 67.62-18.2Q67.62-18.65 67.72-18.95L67.72-18.95Q67.82-19.1 67.92-19.1L67.92-19.1Q68.07-19.1 68.12-18.95L68.12-18.95Q68.22-18.65 68.22-18.2L68.22-18.2 68.22-6.4Q68.22-5.9 68.12-5.7L68.12-5.7Q68.07-5.5 67.92-5.5ZM99.38 0L91.58 0 91.58-24.75 99.38-24.75 99.38 0ZM92.28-23.85L92.28-0.9 98.68-0.9 98.68-23.85 92.28-23.85ZM98.28-1.35L92.68-1.35 92.68-23.4 98.28-23.4 98.28-1.35ZM95.48-26.4L95.48-26.4Q94.03-26.4 92.96-27.48 91.88-28.55 91.88-29.95L91.88-29.95Q91.88-31.5 92.91-32.58 93.93-33.65 95.48-33.65L95.48-33.65Q96.93-33.65 98.01-32.68 99.08-31.7 99.08-29.95L99.08-29.95Q99.08-28.55 98.01-27.48 96.93-26.4 95.48-26.4ZM95.48-27.2L95.48-27.2Q96.63-27.2 97.46-28.03 98.28-28.85 98.28-29.95L98.28-29.95Q98.28-31.25 97.46-32 96.63-32.75 95.48-32.75L95.48-32.75Q94.28-32.75 93.48-31.95 92.68-31.15 92.68-29.95L92.68-29.95Q92.68-28.85 93.48-28.03 94.28-27.2 95.48-27.2ZM95.48-27.6L95.48-27.6Q94.43-27.6 93.76-28.35 93.08-29.1 93.08-29.95L93.08-29.95Q93.08-30.9 93.76-31.63 94.43-32.35 95.48-32.35L95.48-32.35Q96.43-32.35 97.16-31.63 97.88-30.9 97.88-29.95L97.88-29.95Q97.88-29.1 97.16-28.35 96.43-27.6 95.48-27.6ZM124.45 0L115.5 0 115.5-17.8 114.2-17.8 114.2-24.35 115.5-24.35 115.5-24.7Q115.5-28.2 117.02-29.8 118.55-31.4 121.85-31.4L121.85-31.4Q124-31.4 125.2-31.25 126.4-31.1 127.7-30.85L127.7-30.85 127.65-25.15Q127.15-25.25 126.4-25.35 125.65-25.45 124.95-25.45L124.95-25.45Q124.45-25.45 124.45-24.95L124.45-24.95 124.45-24.35 127.7-24.35 127.7-17.8 124.45-17.8 124.45 0ZM116.4-18.7L116.4-0.9 123.55-0.9 123.55-18.7 126.85-18.7 126.85-23.45 123.55-23.45 123.55-25.25Q123.55-26.35 124.75-26.35L124.75-26.35Q125.2-26.35 125.7-26.28 126.2-26.2 126.85-26.1L126.85-26.1 126.85-30.15Q125.75-30.35 124.4-30.43 123.05-30.5 121.85-30.5L121.85-30.5Q118.95-30.5 117.67-29.15 116.4-27.8 116.4-24.7L116.4-24.7 116.4-23.45 115.1-23.45 115.1-18.7 116.4-18.7ZM123.15-1.3L116.8-1.3 116.8-19.1 115.5-19.1 115.5-23.05 116.8-23.05 116.8-24.7Q116.8-27.8 118.02-28.95 119.25-30.1 121.85-30.1L121.85-30.1Q123.15-30.1 124.55-30 125.95-29.9 126.45-29.8L126.45-29.8 126.45-26.6Q126.15-26.65 125.62-26.7 125.1-26.75 124.45-26.75L124.45-26.75Q123.15-26.75 123.15-25.25L123.15-25.25 123.15-23.05 126.45-23.05 126.45-19.1 123.15-19.1 123.15-1.3ZM149.01 5.3L149.01 5.3Q147.41 5.3 145.56 4.98 143.71 4.65 142.51 4.3L142.51 4.3 142.51-2.15Q143.21-1.95 144.08-1.73 144.96-1.5 145.66-1.5L145.66-1.5Q146.31-1.5 146.16-2.3L146.16-2.3 141.81-24.75 151.51-24.75 151.96-20.6 152.41-24.75 161.56-24.75 157.51-3.9Q156.61 1.1 154.56 3.2 152.51 5.3 149.01 5.3ZM149.01 4.35L149.01 4.35Q152.06 4.35 153.98 2.33 155.91 0.3 156.71-4.1L156.71-4.1 160.51-23.85 153.21-23.85 151.96-13 150.76-23.85 142.86-23.85 147.06-2Q147.31-0.55 145.66-0.55L145.66-0.55Q145.31-0.55 144.83-0.68 144.36-0.8 143.41-1L143.41-1 143.41 3.6Q144.31 3.85 145.88 4.1 147.46 4.35 149.01 4.35ZM149.01 3.9L149.01 3.9Q147.51 3.9 146.08 3.7 144.66 3.5 143.81 3.2L143.81 3.2 143.81-0.4Q145.01-0.1 145.71-0.1L145.71-0.1Q146.76-0.1 147.26-0.55 147.76-1 147.51-2.1L147.51-2.1 143.41-23.4 150.36-23.4 151.91-9.4 151.96-8.4 152.01-9.4 153.61-23.4 160.01-23.4 156.26-4.2Q155.46-0.15 153.73 1.88 152.01 3.9 149.01 3.9Z" opacity="1" transform="matrix(1,0,0,1,0,0)" fill="#93c5fd" class="slogan-text-1" data-fill-palette-color="secondary" id="text-1"></path></svg></g></svg></g></svg></g></svg></g><g transform="matrix(1,0,0,1,96.83260526259075,0)"><svg viewBox="0 0 201.8547894748185 201.8547894748185" height="201.8547894748185" width="201.8547894748185"><g><svg></svg></g><g id="icon-0"><svg viewBox="0 0 201.8547894748185 201.8547894748185" height="201.8547894748185" width="201.8547894748185"><g><path d="M0 100.927c0-55.741 45.187-100.927 100.927-100.927 55.741 0 100.927 45.187 100.928 100.927 0 55.741-45.187 100.927-100.928 100.928-55.741 0-100.927-45.187-100.927-100.928zM100.927 187.931c48.051 0 87.004-38.953 87.004-87.004 0-48.051-38.953-87.004-87.004-87.004-48.051 0-87.004 38.953-87.004 87.004 0 48.051 38.953 87.004 87.004 87.004z" data-fill-palette-color="accent" fill="#2563eb" stroke="transparent"></path><ellipse rx="99.91812079003515" ry="99.91812079003515" cx="100.92739473740924" cy="100.92739473740924" fill="#2563eb" stroke="transparent" stroke-width="0" fill-opacity="1" data-fill-palette-color="accent"></ellipse></g><g transform="matrix(1,0,0,1,65.90232564269803,73.75277216392641)"><svg viewBox="0 0 70.05013818942241 54.349245146965664" height="54.349245146965664" width="70.05013818942241"><g><svg xmlns="http://www.w3.org/2000/svg" xmlns:xlink="http://www.w3.org/1999/xlink" version="1.1" x="0" y="0" viewBox="23 28 58 45" enable-background="new 0 0 100 100" xml:space="preserve" height="54.349245146965664" width="70.05013818942241" class="icon-dxe-0" data-fill-palette-color="quaternary" id="dxe-0"><path d="M77 37H65V32.3C65 29.3 63.5 28 60.4 28H43.8C40.8 28 39 29.4 39 32.3V37H26.7C24.1 37 23 38.2 23 40.7V69C23 71.5 24.4 73 27 73H77C79.6 73 81 72.2 81 69.7V40.7C81 38.2 79.6 37 77 37M42 32.3C42 31 42.5 31 43.8 31H60.4C61.7 31 62 31.1 62 32.3V37H42zM78 67.9C78 69 78.1 70 77 70H27.8C26.7 70 26 69 26 67.9V41.7C26 40.6 26.5 40 27.7 40H77C78.1 40 78 40.6 78 41.7z" fill="#ffffff" data-fill-palette-color="quaternary"></path></svg></g></svg></g></svg></g></svg></g><g></g></svg></g><defs></defs></svg><rect width="174.27967810967658" height="247.2" fill="none" stroke="none" visibility="hidden"></rect></g></svg></g></svg>